<svg xmlns="http://www.w3.org/2000/svg" width="213.31" height="37"><defs><filter id="a" x="89.47" y="0" width="123.84" height="37" filterUnits="userSpaceOnUse"><feFlood result="flood" flood-color="#10a34a"/><feComposite result="composite" operator="in" in2="SourceGraphic"/><feBlend result="blend" in2="SourceGraphic"/></filter></defs><path data-name="Прямоугольник 13" d="M106.47 0H213.3v20a17 17 0 0 1-17 17h-89.84a17 17 0 0 1-17-17v-3a17 17 0 0 1 17-17z" fill="#0e8b3f" filter="url(#a)"/><path data-name="Poliv." d="M1.77 30.06v-8.88H8.2a10.73 10.73 0 0 0 6.6-1.99 7.19 7.19 0 0 0 .25-10.98 9.94 9.94 0 0 0-6.41-1.95H0v23.8h1.77zm0-22.17H8.5a8.42 8.42 0 0 1 5.25 1.5 5.02 5.02 0 0 1 1.96 4.25 5.21 5.21 0 0 1-2.04 4.3 8.44 8.44 0 0 1-5.37 1.61H1.77V7.89zm37.2 13.5a8.97 8.97 0 0 0-2.53-6.41 8.38 8.38 0 0 0-6.34-2.67A8.47 8.47 0 0 0 23.72 15a9.3 9.3 0 0 0-.03 12.8 8.38 8.38 0 0 0 6.34 2.67 8.47 8.47 0 0 0 6.37-2.69 8.93 8.93 0 0 0 2.57-6.39zm-13.94 5.32a7.86 7.86 0 0 1 0-10.64 6.6 6.6 0 0 1 5-2.2 6.7 6.7 0 0 1 5.05 2.2 7.79 7.79 0 0 1 0 10.62 6.6 6.6 0 0 1-4.98 2.21 6.7 6.7 0 0 1-5.07-2.19zM46 30.06V5.24h-1.67v24.82h1.67zm8.46 0V12.72h-1.66v17.34h1.66zm.2-21.86V5.92H52.6V8.2h2.07zm13.8 21.99l7.79-17.47h-1.87l-6.63 15.47-6.56-15.47h-1.93l7.79 17.47h1.42zm14.22-.13v-2.89h-2.25v2.89h2.25z" fill-rule="evenodd" fill="#2c2c2c"/><path d="M100.44 29.72V18.95h13.46v-1.64h-13.46V7.56h15V5.92H98.66v23.8h1.77zm32.06-2.89v2.89h1.63V18.91a6.61 6.61 0 0 0-1.76-4.89 7.4 7.4 0 0 0-5.48-1.91 14.63 14.63 0 0 0-6.15 1.5l.6 1.46a11.82 11.82 0 0 1 5.45-1.39 6.03 6.03 0 0 1 4.21 1.36 5.04 5.04 0 0 1 1.5 3.94v.75a22.27 22.27 0 0 0-5.74-.75 9.2 9.2 0 0 0-5.5 1.5 4.82 4.82 0 0 0-2.08 4.14 4.7 4.7 0 0 0 2.02 4.05 7.74 7.74 0 0 0 4.67 1.46 7.66 7.66 0 0 0 6.63-3.3zm-10.08.65a3.41 3.41 0 0 1-1.48-2.89 3.55 3.55 0 0 1 1.5-3.01 7.04 7.04 0 0 1 4.22-1.1 23.8 23.8 0 0 1 5.88.78v1.97a4.68 4.68 0 0 1-1.92 3.83 7.32 7.32 0 0 1-4.64 1.51 5.8 5.8 0 0 1-3.56-1.09zm19.36 2.24v-9.99a6.37 6.37 0 0 1 1.62-4.42 5.08 5.08 0 0 1 3.93-1.8 4.67 4.67 0 0 1 3.68 1.56 6.2 6.2 0 0 1 1.38 4.25v10.4h1.67V19.63a6.17 6.17 0 0 1 1.6-4.46 5.17 5.17 0 0 1 3.87-1.66 4.74 4.74 0 0 1 3.78 1.56 6.4 6.4 0 0 1 1.36 4.35v10.3h1.66v-10.5a7.5 7.5 0 0 0-1.8-5.27 6.24 6.24 0 0 0-4.86-1.97 6.85 6.85 0 0 0-6.25 3.74 6.02 6.02 0 0 0-5.85-3.74 5.85 5.85 0 0 0-3.44.93 8.83 8.83 0 0 0-2.34 2.57v-3.1h-1.67v17.34h1.67zm32.58 0V12.38h-1.67v17.34h1.66zm.2-21.86V5.58h-2.08v2.28h2.08zm8.26 21.86V4.9h-1.67v24.82h1.67zm11.95 4.41a9.9 9.9 0 0 0 2.5-3.79l7.51-17.96h-1.83l-6.26 15.51-7.2-15.51h-1.95l8.33 17.24a9.34 9.34 0 0 1-1.93 3.16 3.3 3.3 0 0 1-2.35.92 6.67 6.67 0 0 1-2.96-.64l-.58 1.46a8.44 8.44 0 0 0 3.44.75 4.98 4.98 0 0 0 3.28-1.14z" fill="#fff" fill-rule="evenodd"/></svg>