<svg xmlns="http://www.w3.org/2000/svg" width="213.313" height="37"><defs><filter id="a" x="471" y="66" width="123.844" height="37" filterUnits="userSpaceOnUse"><feFlood result="flood" flood-color="#10a34a"/><feComposite result="composite" operator="in" in2="SourceGraphic"/><feBlend result="blend" in2="SourceGraphic"/></filter></defs><path data-name="Прямоугольник 13" d="M488 66h106.853v20a17 17 0 01-17 17H488a17 17 0 01-17-17v-3a17 17 0 0117-17z" transform="translate(-381.531 -66)" fill-rule="evenodd" fill="#0e8b3f" filter="url(#a)"/><path data-name="Poliv. Family" d="M1.769 30.058v-8.874h6.426a10.759 10.759 0 006.613-1.989 7.192 7.192 0 00.238-10.982 9.92 9.92 0 00-6.409-1.955H.001v23.8h1.768zm0-22.168h6.732a8.435 8.435 0 015.253 1.5 5.038 5.038 0 011.955 4.25 5.208 5.208 0 01-2.04 4.3 8.4 8.4 0 01-5.372 1.615H1.769V7.89zm37.2 13.5a8.984 8.984 0 00-2.533-6.409A8.888 8.888 0 0023.72 15a9.308 9.308 0 00-.034 12.8 8.376 8.376 0 006.341 2.669 8.462 8.462 0 006.375-2.686 8.934 8.934 0 002.567-6.392zm-13.94 5.321a7.863 7.863 0 010-10.642 6.63 6.63 0 015-2.193 6.723 6.723 0 015.049 2.193 7.794 7.794 0 010 10.625 6.625 6.625 0 01-4.981 2.21 6.705 6.705 0 01-5.068-2.195zm20.978 3.349V5.238h-1.666v24.82h1.666zm8.466 0V12.718h-1.666v17.34h1.662zm.2-21.862v-2.28h-2.074V8.2h2.074zm13.8 22l7.796-17.48h-1.87l-6.63 15.47-6.562-15.47h-1.938l7.786 17.476h1.428zm14.212-.136v-2.89h-2.244v2.89h2.244zm18.291 0V19.28h13.464v-1.632h-13.457V7.89h14.994V6.258H99.215v23.8h1.768zm32.062-2.89v2.89h1.632V19.246a6.62 6.62 0 00-1.768-4.9 7.411 7.411 0 00-5.474-1.9 14.652 14.652 0 00-6.154 1.5l.612 1.462a11.834 11.834 0 015.44-1.394 6.048 6.048 0 014.216 1.36 5.062 5.062 0 011.5 3.944v.748a22.355 22.355 0 00-5.746-.748 9.215 9.215 0 00-5.508 1.5 4.829 4.829 0 00-2.074 4.148A4.714 4.714 0 00121.74 29a7.771 7.771 0 004.675 1.462 7.659 7.659 0 006.63-3.3zm-10.081.646a3.414 3.414 0 01-1.479-2.89 3.541 3.541 0 011.5-3.009 6.989 6.989 0 014.216-1.1 23.75 23.75 0 015.882.782v1.972a4.673 4.673 0 01-1.921 3.825 7.271 7.271 0 01-4.641 1.513 5.827 5.827 0 01-3.545-1.097zm19.363 2.244v-10a6.383 6.383 0 011.615-4.42 5.079 5.079 0 013.927-1.8 4.671 4.671 0 013.689 1.564 6.206 6.206 0 011.377 4.25v10.4h1.666V19.96a6.163 6.163 0 011.6-4.454 5.172 5.172 0 013.876-1.666 4.739 4.739 0 013.779 1.56 6.421 6.421 0 011.36 4.352v10.3h1.666v-10.5a7.512 7.512 0 00-1.8-5.27 6.265 6.265 0 00-4.862-1.972 6.865 6.865 0 00-6.256 3.74 6.03 6.03 0 00-5.848-3.74 5.828 5.828 0 00-3.434.935 8.761 8.761 0 00-2.346 2.567v-3.094h-1.666v17.34h1.666zm32.571 0V12.718h-1.666v17.34h1.666zm.2-21.862V5.918h-2.074V8.2h2.074zm8.278 21.858V5.238h-1.666v24.82h1.666zm11.951 4.4a9.851 9.851 0 002.5-3.791l7.514-17.952h-1.836l-6.256 15.5-7.208-15.5h-1.938l8.33 17.238a9.417 9.417 0 01-1.938 3.162 3.328 3.328 0 01-2.346.918 6.669 6.669 0 01-2.958-.646l-.578 1.462a8.467 8.467 0 003.434.748 4.986 4.986 0 003.275-1.136z" fill="#fff" fill-rule="evenodd"/></svg>